HIERARCHY
ROOT Hips
{
	OFFSET 0.00 0.00 0.00
	CHANNELS 6 Xposition Yposition Zposition Xrotation Yrotation Zrotation
	JOINT Spine
	{
		OFFSET 0.00000 1.72418 2.58627
		CHANNELS 3 Xrotation Yrotation Zrotation
		JOINT Spine1
		{
			OFFSET 0.00000 0.59880 3.39597
			CHANNELS 3 Xrotation Yrotation Zrotation
			JOINT Spine2
			{
				OFFSET 0.00000 0.30055 3.43524
				CHANNELS 3 Xrotation Yrotation Zrotation
				JOINT Spine3
				{
					OFFSET 0.00000 0.00000 3.44836
					CHANNELS 3 Xrotation Yrotation Zrotation
					JOINT Neck
					{
						OFFSET 0.00000 -1.29313 9.05195
						CHANNELS 3 Xrotation Yrotation Zrotation
						JOINT Head
						{
							OFFSET 0.00000 -0.82335 4.66946
							CHANNELS 3 Xrotation Yrotation Zrotation
							End Site
							{
								OFFSET 0.00000 0.00001 5.58203
							}
						}
					}
					JOINT RightShoulder
					{
						OFFSET -1.18828 -1.98046 6.41673
						CHANNELS 3 Xrotation Yrotation Zrotation
						JOINT RightArm
						{
							OFFSET -5.90180 0.00000 0.00000
							CHANNELS 3 Xrotation Yrotation Zrotation
							JOINT RightForeArm
							{
								OFFSET -11.45951 0.00000 0.00000
								CHANNELS 3 Xrotation Yrotation Zrotation
								JOINT RightHand
								{
									OFFSET -10.63451 0.00000 0.00000
									CHANNELS 3 Xrotation Yrotation Zrotation
									JOINT RightHandEnd
									{
										OFFSET -2.86944 0.00000 0.00000
										CHANNELS 3 Xrotation Yrotation Zrotation
										End Site
										{
											OFFSET -2.86944 0.00000 0.00000
										}
									}
									JOINT RightHandThumb1
									{
										OFFSET -1.14778 -1.91296 -0.76518
										CHANNELS 3 Yrotation Xrotation Zrotation
										End Site
										{
											OFFSET -2.77167 -0.74267 0.00000
										}
									}
								}
							}
						}
					}
					JOINT LeftShoulder
					{
						OFFSET 1.18828 -1.98046 6.41673
						CHANNELS 3 Xrotation Yrotation Zrotation
						JOINT LeftArm
						{
							OFFSET 5.90180 0.00000 0.00000
							CHANNELS 3 Xrotation Yrotation Zrotation
							JOINT LeftForeArm
							{
								OFFSET 11.45951 0.00000 0.00000
								CHANNELS 3 Xrotation Yrotation Zrotation
								JOINT LeftHand
								{
									OFFSET 10.63451 0.00000 0.00000
									CHANNELS 3 Xrotation Yrotation Zrotation
									JOINT LeftHandEnd
									{
										OFFSET 2.86944 0.00000 0.00000
										CHANNELS 3 Xrotation Yrotation Zrotation
										End Site
										{
											OFFSET 2.86944 0.00000 0.00000
										}
									}
									JOINT LeftHandThumb1
									{
										OFFSET 1.14778 -1.91296 -0.76518
										CHANNELS 3 Yrotation Xrotation Zrotation
										End Site
										{
											OFFSET 2.77167 -0.74267 0.00000
										}
									}
								}
							}
						}
					}
				}
			}
		}
	}
	JOINT RightUpLeg
	{
		OFFSET -3.52524 0.00000 -1.02984
		CHANNELS 3 Xrotation Yrotation Zrotation
		JOINT RightLeg
		{
			OFFSET 0.00001 0.00000 -17.80965
			CHANNELS 3 Xrotation Yrotation Zrotation
			JOINT RightFoot
			{
				OFFSET 0.00001 0.00000 -17.00908
				CHANNELS 3 Xrotation Yrotation Zrotation
				JOINT RightToeBase
				{
					OFFSET 0.00000 -5.55853 -2.02314
					CHANNELS 3 Xrotation Yrotation Zrotation
					End Site
					{
						OFFSET 0.00000 -2.85188 -0.00000
					}
				}
			}
		}
	}
	JOINT LeftUpLeg
	{
		OFFSET 3.52524 0.00000 -1.02984
		CHANNELS 3 Xrotation Yrotation Zrotation
		JOINT LeftLeg
		{
			OFFSET 0.00001 0.00000 -17.80965
			CHANNELS 3 Xrotation Yrotation Zrotation
			JOINT LeftFoot
			{
				OFFSET 0.00001 0.00000 -17.00908
				CHANNELS 3 Xrotation Yrotation Zrotation
				JOINT LeftToeBase
				{
					OFFSET 0.00000 -5.55853 -2.02314
					CHANNELS 3 Xrotation Yrotation Zrotation
					End Site
					{
						OFFSET 0.00000 -2.85188 -0.00000
					}
				}
			}
		}
	}
}
MOTION
Frames: 13
Frame Time: 0.016683
 0.9973 -97.5441 36.4655 -3.0744 2.6364 -176.7190 0.1453 3.2680 -0.5878 0.0818 0.6226 0.0110 0.5323 0.4095 -1.7753 0.1740 0.2794 -0.2621 2.1201 -1.5866 -1.8437 1.4475 1.1044 0.0336 0.8887 4.0546 -2.3132 -9.8421 6.2461 3.0284 0.0000 0.0000 20.4789 -4.9480 23.8498 -1.8941 -0.0000 0.0000 0.0000 0.0000 0.0000 0.0000 2.6065 -8.4661 0.0754 -14.9120 -5.4241 3.5042 -0.0000 -0.0000 -23.8932 -6.3559 -20.9604 -4.9029 0.0000 0.0000 0.0000 -0.0000 0.0000 -0.0000 -10.4761 7.7392 -23.0976 21.1625 0.0000 0.0000 -14.8600 -0.8437 -2.9889 -0.3570 0.0000 -0.0000 -3.1164 -2.5675 19.6372 17.1379 0.0000 0.0000 -11.0207 11.3599 -4.1608 -0.5715 0.0000 -0.0000
 1.0390 -97.5187 36.4698 -2.9558 2.5212 -176.7828 0.1456 3.1090 -0.5804 0.0855 0.6195 0.0070 0.4938 0.3802 -1.7435 0.1600 0.2757 -0.2519 2.1337 -1.5710 -1.8473 1.4125 1.0907 0.0092 0.7315 4.2342 -2.2727 -9.3970 6.5320 3.1491 0.0000 0.0000 20.1181 -4.8409 23.9394 -1.9065 0.0000 0.0000 0.0000 0.0000 -0.0000 -0.0000 2.5026 -8.5521 0.1311 -14.6015 -5.3960 3.5813 -0.0000 -0.0000 -23.6122 -6.4061 -20.9945 -4.9061 0.0000 0.0000 0.0000 -0.0000 -0.0000 0.0000 -10.1991 7.5320 -23.2787 20.8955 0.0000 0.0000 -14.7098 -0.8561 -2.7561 -0.4100 0.0000 -0.0000 -3.1122 -2.8112 19.6674 17.4194 0.0000 0.0000 -11.0520 11.3807 -4.1902 -0.9018 0.0000 -0.0000
 1.1047 -97.4822 36.4794 -2.7848 2.3770 -176.8736 0.1552 2.8828 -0.5685 0.0957 0.6162 0.0082 0.4227 0.3669 -1.7015 0.1342 0.2802 -0.2392 2.1640 -1.5724 -1.8577 1.3749 1.0671 -0.0206 0.4873 4.4551 -2.2222 -8.7803 6.9209 3.3350 0.0000 0.0000 19.6167 -4.6632 24.0510 -1.9349 0.0000 -0.0000 -0.0000 -0.0000 0.0000 -0.0000 2.3344 -8.6713 0.2127 -14.1091 -5.3449 3.6708 -0.0000 -0.0000 -23.1694 -6.5245 -21.0201 -4.9370 0.0000 0.0000 -0.0000 0.0000 0.0000 0.0000 -9.7727 7.2250 -23.5246 20.4482 0.0000 0.0000 -14.4807 -0.8302 -2.4509 -0.5167 0.0000 -0.0000 -3.2194 -3.1686 19.6578 18.0090 0.0000 0.0000 -11.0484 11.4971 -4.0920 -1.3689 0.0000 -0.0000
 1.1916 -97.4396 36.4949 -2.5857 2.2308 -176.9534 0.1803 2.6233 -0.5525 0.1149 0.6169 0.0074 0.3157 0.3772 -1.6603 0.0942 0.2984 -0.2379 2.2096 -1.6011 -1.8778 1.3413 1.0353 -0.0481 0.1640 4.6738 -2.1670 -8.0631 7.3558 3.5597 0.0000 0.0000 19.0525 -4.4392 24.1481 -1.9699 -0.0000 0.0000 -0.0000 -0.0000 -0.0000 0.0000 2.1064 -8.8111 0.3008 -13.4711 -5.2693 3.7662 -0.0000 -0.0000 -22.6010 -6.6994 -21.0262 -4.9928 0.0000 0.0000 -0.0000 0.0000 0.0000 0.0000 -9.2325 6.8529 -23.8318 19.8409 0.0000 0.0000 -14.1940 -0.7630 -2.1139 -0.6678 0.0000 -0.0000 -3.5639 -3.6206 19.4857 19.1365 0.0000 0.0000 -11.0127 11.7619 -3.7358 -1.8597 0.0000 -0.0000
 1.2935 -97.3978 36.5134 -2.3925 2.0801 -176.9701 0.2222 2.3455 -0.5348 0.1457 0.6244 0.0047 0.1711 0.4094 -1.6529 0.0401 0.3305 -0.2518 2.2596 -1.6553 -1.9111 1.3229 0.9993 -0.0687 -0.2098 4.8544 -2.1246 -7.3302 7.7721 3.7908 0.0000 0.0000 18.5177 -4.2096 24.2032 -1.9953 -0.0000 0.0000 -0.0000 -0.0000 -0.0000 -0.0000 1.8455 -8.9504 0.3736 -12.7590 -5.1732 3.8550 -0.0000 -0.0000 -21.9671 -6.9116 -21.0138 -5.0654 -0.0000 0.0000 -0.0000 -0.0000 0.0000 0.0000 -8.6414 6.4345 -24.2074 19.1301 0.0000 0.0000 -13.8854 -0.6652 -1.7898 -0.8408 0.0000 -0.0000 -4.2475 -4.1622 19.0371 20.9554 0.0000 0.0000 -10.9803 12.2407 -3.0613 -2.2612 0.0000 -0.0000
 1.4027 -97.3617 36.5296 -2.2203 1.8915 -176.8834 0.2916 2.0306 -0.5198 0.1880 0.6400 -0.0003 -0.0087 0.4530 -1.6990 -0.0255 0.3752 -0.2822 2.2971 -1.7206 -1.9583 1.3334 0.9655 -0.0822 -0.5878 4.9929 -2.1117 -6.6538 8.1132 3.9889 0.0000 0.0000 18.0890 -4.0060 24.2128 -1.9977 0.0000 -0.0000 -0.0000 -0.0000 0.0000 -0.0000 1.6006 -9.0803 0.4119 -12.0660 -5.0466 3.9365 -0.0000 -0.0000 -21.3405 -7.1273 -20.9977 -5.1345 -0.0000 -0.0000 -0.0000 0.0000 -0.0000 0.0000 -8.0531 5.9649 -24.6649 18.3941 0.0000 0.0000 -13.5964 -0.5578 -1.5068 -1.0098 0.0000 -0.0000 -5.2621 -4.7918 18.2772 23.3905 0.0000 0.0000 -11.0050 12.9953 -2.1337 -2.5356 0.0000 -0.0000
 1.5109 -97.3340 36.5378 -2.1067 1.6197 -176.6890 0.3519 1.6321 -0.5070 0.2375 0.6755 -0.0073 -0.2067 0.4924 -1.7944 -0.0973 0.4267 -0.3209 2.3018 -1.7750 -2.0207 1.3770 0.9377 -0.0942 -0.9214 5.0998 -2.1498 -6.0791 8.3654 4.1325 0.0000 0.0000 17.7997 -3.8350 24.1953 -1.9739 0.0000 -0.0000 -0.0000 0.0000 -0.0000 -0.0000 1.4170 -9.1905 0.4025 -11.4739 -4.8827 4.0155 -0.0000 -0.0000 -20.7847 -7.3282 -20.9928 -5.1835 0.0000 0.0000 0.0000 0.0000 0.0000 0.0000 -7.5522 5.4278 -25.1933 17.7159 0.0000 0.0000 -13.3572 -0.4627 -1.2782 -1.1548 0.0000 -0.0000 -6.5268 -5.4978 17.2760 26.1040 0.0000 0.0000 -11.1612 14.0161 -1.1270 -2.7784 0.0000 -0.0000
 1.6087 -97.3109 36.5371 -2.0215 1.2918 -176.4331 0.4111 1.1821 -0.4922 0.2903 0.7067 -0.0161 -0.3985 0.5267 -1.9045 -0.1659 0.4797 -0.3611 2.2586 -1.7982 -2.0891 1.4422 0.9170 -0.1110 -1.1812 5.1905 -2.2366 -5.6172 8.5600 4.2126 0.0000 0.0000 17.6386 -3.6813 24.1815 -1.9285 -0.0000 0.0000 0.0000 0.0000 -0.0000 -0.0000 1.3218 -9.2664 0.3572 -11.0253 -4.6809 4.0948 -0.0000 -0.0000 -20.3373 -7.4984 -21.0072 -5.2012 0.0000 -0.0000 -0.0000 0.0000 0.0000 0.0000 -7.1381 4.8779 -25.7715 17.1597 0.0000 0.0000 -13.1869 -0.4040 -1.0688 -1.2679 0.0000 -0.0000 -7.7988 -6.1855 16.1787 28.5363 0.0000 0.0000 -11.5200 15.1528 -0.2263 -3.2091 0.0000 -0.0000
 1.6872 -97.2872 36.5314 -1.9398 0.9937 -176.1975 0.4640 0.7597 -0.4747 0.3347 0.7214 -0.0239 -0.5490 0.5548 -1.9781 -0.2224 0.5261 -0.3907 2.1651 -1.7798 -2.1511 1.4986 0.9000 -0.1355 -1.3617 5.2590 -2.3585 -5.2620 8.7683 4.2473 0.0000 0.0000 17.5629 -3.5244 24.1999 -1.8740 0.0000 0.0000 0.0000 0.0000 -0.0000 -0.0000 1.3020 -9.2807 0.2936 -10.7108 -4.4618 4.1833 -0.0000 -0.0000 -20.0121 -7.6341 -21.0282 -5.1912 0.0000 0.0000 0.0000 -0.0000 0.0000 0.0000 -6.8050 4.4210 -26.3374 16.7679 0.0000 0.0000 -13.0888 -0.3950 -0.8440 -1.3507 0.0000 -0.0000 -8.8380 -6.7182 15.1529 30.1290 0.0000 0.0000 -12.1303 16.1292 0.4604 -4.0394 0.0000 -0.0000
 1.7405 -97.2582 36.5254 -1.8471 0.8117 -176.0735 0.5002 0.4489 -0.4545 0.3640 0.7125 -0.0281 -0.6385 0.5699 -1.9723 -0.2608 0.5605 -0.4007 2.0363 -1.7227 -2.1867 1.5173 0.8825 -0.1618 -1.4795 5.3036 -2.4798 -5.0043 9.0399 4.2678 0.0000 0.0000 17.5231 -3.3488 24.2685 -1.8206 0.0000 -0.0000 0.0000 -0.0000 0.0000 -0.0000 1.3235 -9.2146 0.2467 -10.4793 -4.2424 4.2854 -0.0000 -0.0000 -19.7975 -7.7314 -21.0346 -5.1658 0.0000 0.0000 0.0000 0.0000 0.0000 0.0000 -6.5486 4.1485 -26.7824 16.5619 0.0000 0.0000 -13.0587 -0.4302 -0.6097 -1.4126 0.0000 -0.0000 -9.4657 -6.9892 14.3480 30.4929 0.0000 0.0000 -12.9562 16.6571 0.9228 -5.2820 0.0000 -0.0000
 1.7682 -97.2207 36.5205 -1.7390 0.7608 -176.1257 0.5117 0.2697 -0.4384 0.3743 0.6715 -0.0288 -0.6706 0.5783 -1.8667 -0.2807 0.5734 -0.3847 1.9050 -1.6414 -2.1785 1.4874 0.8631 -0.1780 -1.5527 5.3379 -2.5580 -4.8379 9.3731 4.3061 0.0000 0.0000 17.4850 -3.1579 24.3810 -1.7792 0.0000 0.0000 0.0000 -0.0000 -0.0000 0.0000 1.3503 -9.0763 0.2432 -10.2640 -4.0249 4.4128 -0.0000 -0.0000 -19.6679 -7.7862 -20.9958 -5.1448 0.0000 0.0000 0.0000 0.0000 0.0000 0.0000 -6.3672 4.0611 -26.9824 16.5349 0.0000 0.0000 -13.0892 -0.4852 -0.4256 -1.4600 0.0000 -0.0000 -9.5966 -6.9920 13.8511 29.5081 0.0000 0.0000 -13.8324 16.5603 1.2104 -6.6585 0.0000 -0.0000
 1.7741 -97.1736 36.5140 -1.6191 0.7840 -176.3687 0.4985 0.1777 -0.4288 0.3617 0.6135 -0.0283 -0.6658 0.5633 -1.6785 -0.2871 0.5619 -0.3531 1.8069 -1.5574 -2.1106 1.4246 0.8448 -0.1683 -1.5963 5.3968 -2.5491 -4.7572 9.7063 4.3856 0.0000 0.0000 17.4367 -2.9743 24.5168 -1.7538 -0.0000 0.0000 0.0000 -0.0000 -0.0000 0.0000 1.3735 -8.8986 0.3218 -10.0149 -3.7952 4.5549 -0.0000 -0.0000 -19.5832 -7.7959 -20.9013 -5.1402 0.0000 -0.0000 -0.0000 -0.0000 0.0000 0.0000 -6.2665 4.0772 -26.8406 16.6702 0.0000 0.0000 -13.1812 -0.5261 -0.3825 -1.4925 0.0000 -0.0000 -9.2511 -6.8084 13.6579 27.3646 0.0000 0.0000 -14.4975 15.8224 1.3956 -7.7057 0.0000 -0.0000
 1.7670 -97.1194 36.5007 -1.5083 0.7719 -176.7502 0.4465 0.0821 -0.4253 0.3388 0.5714 -0.0266 -0.6548 0.5018 -1.4722 -0.2868 0.5228 -0.3071 1.7660 -1.4979 -1.9930 1.3584 0.8339 -0.1219 -1.6161 5.5012 -2.4452 -4.7548 9.9687 4.5174 0.0000 0.0000 17.3877 -2.8168 24.6476 -1.7500 -0.0000 0.0000 -0.0000 -0.0000 -0.0000 0.0000 1.3919 -8.7286 0.4705 -9.7081 -3.5423 4.7219 -0.0000 -0.0000 -19.5131 -7.7597 -20.7594 -5.1568 0.0000 -0.0000 -0.0000 0.0000 -0.0000 -0.0000 -6.2622 4.0570 -26.3308 16.9353 0.0000 0.0000 -13.3312 -0.5208 -0.5738 -1.5051 0.0000 -0.0000 -8.5880 -6.5919 13.6793 24.5791 0.0000 0.0000 -14.7339 14.5608 1.5273 -8.0385 0.0000 -0.0000
